<svg width="45" height="27" viewBox="0 0 45 27" fill="none" xmlns="http://www.w3.org/2000/svg">
<path d="M12.0586 26.2812C10.4883 26.2812 8.67773 26.1055 6.62695 25.7539C4.57617 25.4023 2.82422 24.9688 1.37109 24.4531C0.960938 24.3125 0.755859 23.9492 0.755859 23.3633C0.755859 22.332 0.779297 20.7617 0.826172 18.6523C0.826172 18.1602 0.990234 17.8496 1.31836 17.7207C1.6582 17.5918 1.96289 17.6973 2.23242 18.0371C3.39258 19.2793 4.80469 20.2051 6.46875 20.8145C8.13281 21.4121 9.9375 21.7109 11.8828 21.7109C13.5 21.7109 14.7715 21.4766 15.6973 21.0078C16.6348 20.5273 17.1035 19.8418 17.1035 18.9512C17.1035 18.4238 16.9219 17.9492 16.5586 17.5273C16.207 17.0938 15.7266 16.7246 15.1172 16.4199C14.5195 16.1152 13.8281 15.8281 13.043 15.5586C12.2578 15.2773 11.4316 15.002 10.5645 14.7324C9.69727 14.4629 8.83008 14.1816 7.96289 13.8887C7.10742 13.584 6.28711 13.2266 5.50195 12.8164C4.7168 12.4062 4.01953 11.9492 3.41016 11.4453C2.8125 10.9414 2.33203 10.3262 1.96875 9.59961C1.61719 8.87305 1.44141 8.06445 1.44141 7.17383C1.44141 5.7207 1.91602 4.48438 2.86523 3.46484C3.81445 2.44531 5.07422 1.70117 6.64453 1.23242C8.21484 0.751953 10.0195 0.511719 12.0586 0.511719C13.4648 0.511719 14.9062 0.646484 16.3828 0.916016C17.8711 1.18555 19.1777 1.56641 20.3027 2.05859C20.7363 2.28125 20.9531 2.62695 20.9531 3.0957V7.13867C20.9531 7.60742 20.7891 7.92383 20.4609 8.08789C20.1445 8.24023 19.8516 8.15234 19.582 7.82422C18.5742 6.93359 17.4316 6.24805 16.1543 5.76758C14.8887 5.28711 13.6055 5.04688 12.3047 5.04688C11.3672 5.04688 10.5117 5.13477 9.73828 5.31055C8.97656 5.47461 8.33789 5.75 7.82227 6.13672C7.30664 6.51172 7.04883 6.97461 7.04883 7.52539C7.04883 8.00586 7.23047 8.44531 7.59375 8.84375C7.95703 9.24219 8.44336 9.59375 9.05273 9.89844C9.66211 10.1914 10.3594 10.4785 11.1445 10.7598C11.9297 11.041 12.7617 11.3223 13.6406 11.6035C14.5195 11.8848 15.3926 12.1836 16.2598 12.5C17.1387 12.8164 17.9707 13.1914 18.7559 13.625C19.541 14.0469 20.2383 14.5098 20.8477 15.0137C21.457 15.5176 21.9434 16.1328 22.3066 16.8594C22.6699 17.5859 22.8516 18.377 22.8516 19.2324C22.8516 21.4355 21.8906 23.1641 19.9688 24.418C18.0586 25.6602 15.4219 26.2812 12.0586 26.2812Z" fill="url(#paint0_linear_13_2)"/>
<path d="M26.7492 26.1406C25.5539 26.1406 24.7219 26.0938 24.2531 26C23.6789 25.8828 23.3918 25.5723 23.3918 25.0684C23.3918 21.2949 23.4621 17.0234 23.6027 12.2539C23.7434 7.47266 23.9016 3.94531 24.0773 1.67188C24.1008 1.42578 24.1828 1.2207 24.3234 1.05664C24.4758 0.892578 24.6691 0.804688 24.9035 0.792969C27.5051 0.605469 30.2883 0.511719 33.2531 0.511719C36.8625 0.511719 39.6516 1.08594 41.6203 2.23438C43.5891 3.37109 44.5734 4.99414 44.5734 7.10352C44.5734 8.95508 43.9582 10.5957 42.7277 12.0254C41.509 13.4434 39.7687 14.5391 37.507 15.3125C35.257 16.0742 32.6672 16.4316 29.7375 16.3848C29.4562 16.4082 29.2336 16.543 29.0695 16.7891C28.9172 17.0352 28.841 17.3691 28.841 17.791C28.841 18.8691 29.0168 20.2578 29.3684 21.957C29.7316 23.6445 29.925 24.6465 29.9484 24.9629C29.9602 25.2324 29.8781 25.4668 29.7023 25.666C29.5383 25.8535 29.3215 25.9766 29.052 26.0352C28.5949 26.1055 27.8273 26.1406 26.7492 26.1406ZM30.634 12.7461C33.423 12.7344 35.5676 12.2422 37.0676 11.2695C38.5676 10.2969 39.3176 9.125 39.3176 7.75391C39.3176 5.71484 37.3137 4.69531 33.3059 4.69531C32.2863 4.69531 31.3254 4.73047 30.423 4.80078C29.591 4.87109 29.134 5.29883 29.052 6.08398C28.8527 7.66602 28.8527 9.50586 29.052 11.6035C29.1223 12.4004 29.6496 12.7812 30.634 12.7461Z" fill="url(#paint1_linear_13_2)"/>
<defs>
<linearGradient id="paint0_linear_13_2" x1="0" y1="14.5111" x2="22.4889" y2="14.5111" gradientUnits="userSpaceOnUse">
<stop stop-color="#38AA76"/>
<stop offset="0.409091" stop-color="#238963"/>
<stop offset="1" stop-color="#67C989"/>
</linearGradient>
<linearGradient id="paint1_linear_13_2" x1="22.4889" y1="14.5111" x2="46" y2="14.5111" gradientUnits="userSpaceOnUse">
<stop stop-color="#95555E"/>
<stop offset="0.0001" stop-color="#95555E"/>
<stop offset="0.4002" stop-color="#E6918C"/>
<stop offset="1" stop-color="#D37D7C"/>
</linearGradient>
</defs>
</svg>
